<svg xmlns="http://www.w3.org/2000/svg" role="img" width="448" height="448" style="">
    <rect id="backgroundrect" width="100%" height="100%" x="0" y="0" fill="none" stroke="none" class="" style="" />

    <g class="currentLayer" style="">
        <title>Layer 1</title>
        <path fill="#FFF" d="M120.12,176.29 c-3.88,-2.9 -7.77,-4.35 -11.65,-4.35 H91.03 v104.47 h17.45 c3.88,0 7.77,-1.45 11.65,-4.35 c3.88,-2.9 5.82,-7.25 5.82,-13.06 v-69.65 c-0.010000000000000004,-5.8 -1.96,-10.16 -5.83,-13.06 zM404.1,0 H43.9 C19.7,0 0.06000000000000002,19.590000000000003 0,43.8 v360.4 C0.06000000000000002,428.41 19.7,448 43.9,448 h360.2 c24.21,0 43.84,-19.59 43.9,-43.8 V43.8 c-0.06000000000000002,-24.21 -19.7,-43.8 -43.9,-43.8 zM154.2,259.19 c0,18.81 -11.61,47.31 -48.36,47.25 h-46.4 V140.98 h47.38 c35.44,0 47.36,28.46 47.37,47.28 l0.010000000000000004,70.93 zm100.68,-88.66 H201.6 v38.42 h32.57 v29.57 H201.6 v38.41 h53.29 v29.57 h-62.18 c-11.16,0.2900000000000001 -20.44,-8.53 -20.72,-19.69 V161.7 c-0.27,-11.15 8.56,-20.41 19.71,-20.69 h63.19 l-0.010000000000000004,29.52 zm103.64,115.29 c-13.2,30.75 -36.85,24.63 -47.44,0 l-38.53,-144.8 h32.57 l29.71,113.72 l29.57,-113.72 h32.58 l-38.46,144.8 z" id="svg_1" class="" />
    </g>
</svg>